# xmcd
#
# Track frame offsets:
# 150
# 20335
# 45765
# 70122
# 85770
# 106592
# 125922
# 151877
# 168452
# 187122
# 209860
# 232147
# 250112
# 265927
# 284967
# 299585
# 312580
# 325957
# 339192
#
# Disc length: 4729 seconds
#
#
# Revision: 5
# Processed by: cddbd v1.5.1PL0 Copyright (c) Steve Scherf et al.
# Submitted via: FreeRIP 2.942 
#
DISCID=23127713
DTITLE=Various Artist - Summertime Blues
DYEAR=2000
DGENRE=Blues
TTITLE0=Buddy Guy - Damn right, I've got the blues
TTITLE1=John Lee Hooker - The Healer
TTITLE2=B.B King - The Thrill is gone
TTITLE3=Charlie Musselwhite - Black magic women
TTITLE4=Stevie Ray Vaughan - The sky is crying
TTITLE5=Sanne Salomonsen - Where Blue begins
TTITLE6=Walter Trout Band - Life in the jungle
TTITLE7=Larry McCray - Last hand of the night
TTITLE8=Gary Moore - Still got the blues
TTITLE9=Albert Collins - Iceman
TTITLE10=George Thorogood - Bad to the bone
TTITLE11=Chet Atkins and Mark Knopfler - Poor boy blues
TTITLE12=John Hammond - Trouble blues
TTITLE13=Hanne Boel - Make love to You
TTITLE14=Johnny Winter - She likes to boogle real low
TTITLE15=Fleetwood Mac - Dust my broom
TTITLE16=Taj Mahaj - Statesboro blues
TTITLE17=Gary Moore - Walking by Myself
TTITLE18=Van Morrison - It's all right
EXTD=
EXTT0=
EXTT1=
EXTT2=
EXTT3=
EXTT4=
EXTT5=
EXTT6=
EXTT7=
EXTT8=
EXTT9=
EXTT10=
EXTT11=
EXTT12=
EXTT13=
EXTT14=
EXTT15=
EXTT16=
EXTT17=
EXTT18=
PLAYORDER=
